<svg id="Layer_1" data-name="Layer 1" xmlns="http://www.w3.org/2000/svg" viewBox="0 0 192 192"><defs><style>.cls-1{fill:#1cb2aa;}</style></defs><title>tridentArtboard 1</title><rect class="cls-1" x="85.332" y="32" width="21.333" height="122.665"/><rect class="cls-1" x="47.999" y="53.333" width="21.333" height="85.332"/><polygon class="cls-1" points="85.332 154.664 106.665 143.998 106.665 165.331 85.332 154.664"/><polygon class="cls-1" points="106.665 32 85.332 42.666 85.332 21.333 106.665 32"/><polygon class="cls-1" points="47.999 138.664 69.332 127.998 69.332 149.331 47.999 138.664"/><polygon class="cls-1" points="37.333 31.999 47.999 53.333 69.332 53.332 37.333 31.999"/><rect class="cls-1" x="122.665" y="53.333" width="21.333" height="85.332" transform="translate(266.663 191.997) rotate(-180)"/><polygon class="cls-1" points="143.998 138.664 122.665 127.998 122.665 149.331 143.998 138.664"/><polygon class="cls-1" points="154.664 31.999 143.998 53.333 122.665 53.332 154.664 31.999"/></svg>