<svg xmlns="http://www.w3.org/2000/svg" id="Layer_1" data-name="Layer 1" viewBox="0 0 117.33 144"><defs><style>.cls-1{fill:#00a9c7;}</style></defs><title>trident book logo 192px</title><rect class="cls-1" x="48" y="10.67" width="21.33" height="122.66"/><rect class="cls-1" x="10.67" y="32" width="21.33" height="85.33"/><polygon class="cls-1" points="48 133.33 69.33 122.67 69.33 144 48 133.33"/><polygon class="cls-1" points="69.33 10.67 48 21.33 48 0 69.33 10.67"/><polygon class="cls-1" points="10.67 117.33 32 106.67 32 128 10.67 117.33"/><polygon class="cls-1" points="0 10.67 10.67 33 32 32 0 10.67"/><rect class="cls-1" x="122.66" y="53.33" width="21.33" height="85.33" transform="translate(229.33 170.66) rotate(-180)"/><polygon class="cls-1" points="106.67 117.33 85.33 106.67 85.33 128 106.67 117.33"/><polygon class="cls-1" points="117.33 10.67 106.67 33 85.33 32 117.33 10.67"/></svg>